<svg width="28" height="28" viewBox="0 0 28 28" fill="none" xmlns="http://www.w3.org/2000/svg">
<path d="M26.1601 12.0801L2.94007 0.470113C2.62682 0.324981 2.28224 0.260501 1.93771 0.282544C1.59318 0.304587 1.25963 0.412452 0.967429 0.59632C0.675228 0.780188 0.433654 1.03422 0.2647 1.33529C0.0957449 1.63636 0.00477479 1.97491 7.02113e-05 2.32011V25.5301C-0.00285516 25.8845 0.08568 26.2336 0.257119 26.5437C0.428558 26.8539 0.677102 27.1145 0.978729 27.3005C1.28036 27.4865 1.62487 27.5916 1.97896 27.6055C2.33305 27.6195 2.68475 27.5418 3.00007 27.3801L26.1601 15.7701C26.5031 15.5979 26.7916 15.3337 26.9931 15.007C27.1947 14.6803 27.3014 14.304 27.3014 13.9201C27.3014 13.5362 27.1947 13.1599 26.9931 12.8332C26.7916 12.5065 26.5031 12.2423 26.1601 12.0701V12.0801Z" fill="#FCFCFC"/>
</svg>
