<svg aria-hidden="true" style="width:0;height:0;position:absolute;overflow:hidden" xmlns="http://www.w3.org/2000/svg"><defs><symbol id="icon-smile" viewBox="0 0 30 32"><path fill="#fff" style="fill:var(--color1,#fff)" d="M16.536 8.8c.637.35 1.64-.169 2.242-1.159s.573-2.075-.063-2.424c-.637-.35-1.64.169-2.242 1.158s-.573 2.075.063 2.424z"/><path style="fill:var(--color2,#000)" d="M18.667 5.297c.579.318.592 1.37.027 2.298s-1.53 1.443-2.109 1.125c-.579-.318-.592-1.37-.027-2.298s1.53-1.442 2.109-1.125zm.097-.16c-.683-.375-1.746.159-2.375 1.192s-.585 2.176.099 2.551c.683.375 1.747-.159 2.375-1.192s.585-2.175-.099-2.551z"/><path fill="#fff" style="fill:var(--color1,#fff)" d="M20.419 10.93c.637.35 1.64-.169 2.242-1.159s.573-2.075-.063-2.424c-.637-.35-1.64.169-2.242 1.159s-.573 2.075.063 2.424z"/><path style="fill:var(--color2,#000)" d="M22.549 7.427c.579.318.592 1.37.027 2.298s-1.53 1.443-2.109 1.125c-.579-.318-.592-1.37-.027-2.298s1.53-1.442 2.109-1.125zm.098-.16c-.683-.375-1.747.159-2.375 1.192s-.584 2.176.099 2.551c.683.375 1.747-.159 2.375-1.192s.585-2.175-.099-2.551zM17.089 7.891c.357.196.916-.088 1.248-.634s.312-1.148-.045-1.344c-.357-.196-.916.088-1.248.634s-.312 1.148.045 1.344z"/><path style="fill:var(--color2,#000)" d="M18.276 5.939c.341.187.356.771.033 1.302s-.863.81-1.204.623c-.341-.187-.356-.771-.033-1.302s.863-.81 1.204-.623zm.033-.054c-.373-.205-.951.085-1.293.646s-.316 1.182.057 1.387c.373.205.951-.085 1.293-.646s.316-1.182-.057-1.387zM20.972 10.021c.357.196.916-.088 1.248-.634s.312-1.148-.045-1.344c-.357-.196-.916.088-1.248.634s-.312 1.148.045 1.344z"/><path style="fill:var(--color2,#000)" d="M22.159 8.069c.341.187.356.771.033 1.302s-.863.81-1.204.623c-.341-.187-.356-.771-.033-1.302s.863-.81 1.204-.623zm.033-.053c-.373-.205-.951.085-1.293.646s-.316 1.182.057 1.387c.373.205.951-.085 1.293-.646s.316-1.182-.057-1.387z"/><path fill="#fff" style="fill:var(--color1,#fff)" d="M17.855 7.134c.215.118.52-.002.682-.268s.119-.577-.096-.695-.52.002-.682.268-.119.577.096.695zM21.738 9.265c.215.118.52-.002.682-.268s.119-.577-.096-.695-.52.002-.682.268-.119.577.096.695z"/><path style="fill:var(--color2,#000)" d="M18.175 3.822a2.36 2.36 0 0 1 1.77.973c.14.197.48.014.34-.184a2.782 2.782 0 0 0-2.111-1.16c-.25-.017-.248.355.001.371zM22.227 6.045a2.36 2.36 0 0 1 1.77.973c.14.197.48.014.34-.184a2.782 2.782 0 0 0-2.111-1.16c-.25-.017-.248.355.001.371z"/><path fill="#fff" style="fill:var(--color1,#fff)" d="M5.322 17.943c.593-.19.809-1.091.483-2.014s-1.073-1.516-1.666-1.327c-.593.19-.809 1.091-.483 2.014s1.073 1.516 1.666 1.327z"/><path style="fill:var(--color2,#000)" d="M4.165 14.678c.54-.173 1.254.412 1.561 1.277s.109 1.741-.431 1.914c-.54.173-1.254-.412-1.561-1.277s-.109-1.741.431-1.914zm-.053-.15c-.637.204-.876 1.15-.535 2.114s1.134 1.58 1.771 1.376c.637-.204.876-1.15.535-2.114s-1.134-1.58-1.771-1.376z"/><path fill="#fff" style="fill:var(--color1,#fff)" d="M8.941 16.787c.593-.19.809-1.091.483-2.014s-1.073-1.516-1.666-1.327-.809 1.091-.483 2.014c.327.922 1.073 1.516 1.666 1.327z"/><path style="fill:var(--color2,#000)" d="M7.785 13.522c.54-.173 1.254.412 1.561 1.277s.109 1.741-.431 1.914-1.254-.412-1.561-1.277c-.306-.865-.109-1.741.431-1.914zm-.053-.15c-.637.204-.876 1.15-.535 2.114s1.134 1.58 1.771 1.376c.637-.204.876-1.15.535-2.114s-1.134-1.58-1.771-1.376zM5.022 17.096c.333-.107.456-.606.276-1.115s-.597-.836-.929-.73c-.333.107-.456.606-.276 1.115s.597.836.929.73z"/><path style="fill:var(--color2,#000)" d="M4.377 15.276c.318-.102.719.218.894.713s.059.98-.259 1.082c-.318.102-.719-.218-.894-.713s-.059-.98.259-1.082zm-.018-.05c-.347.111-.479.625-.293 1.148s.617.857.964.746.479-.625.293-1.148c-.185-.523-.617-.857-.964-.746zM8.641 15.94c.333-.107.456-.606.276-1.115s-.597-.836-.929-.73c-.333.106-.456.606-.276 1.115s.596.836.929.73z"/><path style="fill:var(--color2,#000)" d="M7.997 14.12c.318-.102.719.218.894.713s.059.98-.259 1.082c-.318.102-.719-.218-.894-.713s-.059-.98.259-1.082zm-.018-.05c-.347.111-.479.625-.293 1.148s.617.857.964.746c.347-.111.479-.625.293-1.148s-.617-.857-.964-.746z"/><path fill="#fff" style="fill:var(--color1,#fff)" d="M4.455 16.306c.2-.064.292-.317.204-.565s-.321-.397-.522-.333c-.2.064-.292.317-.204.565s.321.397.522.333zM8.039 15.05c.2-.064.291-.317.204-.565s-.321-.397-.522-.333-.292.317-.204.565c.088.248.321.397.522.333z"/><path style="fill:var(--color2,#000)" d="M3.169 14.006c.088-.303.245-.616.564-.748.298-.123.632-.046.919.07.196.08.345-.203.147-.283-.382-.155-.82-.24-1.213-.072-.414.177-.628.57-.743.968-.057.197.268.259.325.064zM6.987 12.474c.833.089 1.69-.02 2.464-.324.196-.077.091-.378-.106-.3a4.897 4.897 0 0 1-2.291.314c-.211-.023-.28.287-.067.31z"/><path fill="#fff" style="fill:var(--color1,#fff)" d="M18.257 23.549c.628.419 1.721-.032 2.442-1.007s.797-2.106.169-2.524c-.628-.419-1.721.032-2.442 1.008s-.796 2.105-.169 2.524z"/><path style="fill:var(--color2,#000)" d="M20.809 20.096c.571.381.482 1.475-.194 2.39s-1.729 1.365-2.3.984c-.571-.381-.483-1.475.193-2.39s1.73-1.365 2.3-.984zm.117-.158c-.673-.449-1.83.012-2.583 1.031s-.818 2.209-.144 2.659c.673.449 1.83-.012 2.583-1.031s.818-2.209.144-2.659z"/><path fill="#fff" style="fill:var(--color1,#fff)" d="M22.085 26.102c.628.419 1.721-.032 2.442-1.008s.796-2.105.169-2.524c-.628-.419-1.721.032-2.442 1.007s-.796 2.106-.169 2.524z"/><path style="fill:var(--color2,#000)" d="M24.637 22.649c.571.381.482 1.475-.194 2.39s-1.729 1.365-2.3.984c-.571-.381-.483-1.475.194-2.39s1.73-1.365 2.3-.984zm.117-.158c-.674-.45-1.83.012-2.583 1.031s-.818 2.209-.144 2.659 1.83-.012 2.583-1.031c.753-1.019.818-2.209.144-2.659zM19.531 22.274c.352.235.96-.011 1.358-.55s.435-1.166.083-1.401c-.352-.235-.96.011-1.358.55s-.435 1.166-.083 1.401z"/><path style="fill:var(--color2,#000)" d="M20.953 20.349c.336.225.295.832-.091 1.356s-.975.767-1.311.542c-.336-.225-.295-.832.092-1.356s.975-.766 1.311-.542zm.039-.052c-.368-.245-.997.005-1.405.558s-.443 1.2-.075 1.446.997-.005 1.405-.558c.409-.553.443-1.2.075-1.446zM23.414 24.864c.352.235.96-.011 1.358-.55s.435-1.166.083-1.401c-.352-.235-.96.011-1.358.55s-.435 1.166-.083 1.401z"/><path style="fill:var(--color2,#000)" d="M24.836 22.939c.336.225.295.832-.091 1.356s-.975.767-1.311.542c-.336-.225-.295-.832.092-1.356s.975-.766 1.311-.542zm.039-.052c-.368-.245-.997.005-1.405.558s-.443 1.2-.075 1.446c.367.245.997-.005 1.405-.558s.443-1.2.075-1.446z"/><path fill="#fff" style="fill:var(--color1,#fff)" d="M19.342 22.029c.165.11.42.034.571-.17s.139-.458-.026-.568c-.165-.11-.42-.034-.571.17s-.139.458.025.568zM23.242 24.709c.165.11.42.034.571-.17s.139-.458-.025-.568c-.165-.11-.42-.034-.571.17s-.139.458.026.568z"/><path style="fill:var(--color2,#000)" d="M20.309 18.519a2.497 2.497 0 0 1 1.924.974c.154.201.468-.046.315-.246a2.895 2.895 0 0 0-2.204-1.113c-.261-.009-.298.377-.035.385zM24.821 21.135c.732.25 1.272.79 1.517 1.488.083.236.452.073.37-.161-.278-.793-.924-1.409-1.75-1.691-.246-.084-.384.28-.137.365zM18.406 27.379c.248-.189.184-.657-.143-1.046s-.794-.551-1.043-.362c-.248.189-.184.657.143 1.046s.794.551 1.043.362z"/><path style="fill:var(--color2,#000)" d="M18.136 27.638c.505.337.959.551 1.013.479s-.312-.405-.818-.742c-.506-.337-.959-.551-1.013-.479s.312.405.818.742z"/><path style="fill:var(--color2,#000)" d="M18.962 28.097c.477.206.971.15 1.102-.125s-.148-.665-.626-.871c-.477-.206-.971-.15-1.102.125s.148.665.626.871z"/></symbol><symbol id="icon-wave-right" viewBox="0 0 83 32"><path fill="#f8d24e" style="fill:var(--color3,#f8d24e)" d="M33.733 29.616c0 .982-.764 1.778-1.706 1.778s-1.706-.796-1.706-1.778.764-1.778 1.706-1.778 1.706.796 1.706 1.778zM37.429 27.245c0 .982-.764 1.778-1.706 1.778s-1.706-.796-1.706-1.778.764-1.778 1.706-1.778 1.706.796 1.706 1.778zM41.692 24.578c0 .982-.764 1.778-1.706 1.778s-1.706-.796-1.706-1.778.764-1.778 1.706-1.778 1.706.796 1.706 1.778zM45.673 22.206c0 .982-.764 1.778-1.706 1.778s-1.706-.796-1.706-1.778.764-1.778 1.706-1.778 1.706.796 1.706 1.778zM43.398 28.431c0 .982-.764 1.778-1.706 1.778s-1.706-.796-1.706-1.778.764-1.778 1.706-1.778 1.706.796 1.706 1.778zM47.094 26.06c0 .982-.764 1.778-1.706 1.778s-1.706-.796-1.706-1.778.764-1.778 1.706-1.778 1.706.796 1.706 1.778zM51.358 23.392c0 .982-.764 1.778-1.706 1.778s-1.706-.796-1.706-1.778.764-1.778 1.706-1.778 1.706.796 1.706 1.778zM55.339 21.021c0 .982-.764 1.778-1.706 1.778s-1.706-.796-1.706-1.778.764-1.778 1.706-1.778 1.706.796 1.706 1.778zM51.643 27.542c0 .982-.764 1.778-1.706 1.778s-1.706-.796-1.706-1.778.764-1.778 1.706-1.778 1.706.796 1.706 1.778zM55.34 25.171c0 .982-.764 1.778-1.706 1.778s-1.706-.796-1.706-1.778.764-1.778 1.706-1.778 1.706.796 1.706 1.778zM59.604 22.503c0 .982-.764 1.778-1.706 1.778s-1.706-.796-1.706-1.778.764-1.778 1.706-1.778 1.706.796 1.706 1.778zM63.583 20.132c0 .982-.764 1.778-1.706 1.778s-1.706-.796-1.706-1.778.764-1.778 1.706-1.778 1.706.796 1.706 1.778zM59.603 26.356c0 .982-.764 1.778-1.706 1.778s-1.706-.796-1.706-1.778.764-1.778 1.706-1.778 1.706.796 1.706 1.778zM63.298 23.985c0 .982-.764 1.778-1.706 1.778s-1.706-.796-1.706-1.778.764-1.778 1.706-1.778 1.706.796 1.706 1.778zM67.562 21.318c0 .982-.764 1.778-1.706 1.778s-1.706-.796-1.706-1.778.764-1.778 1.706-1.778 1.706.796 1.706 1.778zM71.543 18.947c0 .982-.764 1.778-1.706 1.778s-1.706-.796-1.706-1.778.764-1.778 1.706-1.778 1.706.796 1.706 1.778zM62.162 29.616c0 .982-.764 1.778-1.706 1.778s-1.706-.796-1.706-1.778.764-1.778 1.706-1.778 1.706.796 1.706 1.778zM65.858 27.245c0 .982-.764 1.778-1.706 1.778s-1.706-.796-1.706-1.778.764-1.778 1.706-1.778 1.706.796 1.706 1.778zM70.975 29.913c0 .982-.764 1.778-1.706 1.778s-1.706-.796-1.706-1.778.764-1.778 1.706-1.778 1.706.796 1.706 1.778zM70.123 24.578c0 .982-.764 1.778-1.706 1.778s-1.706-.796-1.706-1.778.764-1.778 1.706-1.778 1.706.796 1.706 1.778zM75.24 27.245c0 .982-.764 1.778-1.706 1.778s-1.706-.796-1.706-1.778.764-1.778 1.706-1.778 1.706.796 1.706 1.778zM79.22 29.913c0 .982-.764 1.778-1.706 1.778s-1.706-.796-1.706-1.778.764-1.778 1.706-1.778 1.706.796 1.706 1.778zM74.103 22.206c0 .982-.764 1.778-1.706 1.778s-1.706-.796-1.706-1.778.764-1.778 1.706-1.778 1.706.796 1.706 1.778zM79.22 24.874c0 .982-.764 1.778-1.706 1.778s-1.706-.796-1.706-1.778.764-1.778 1.706-1.778 1.706.796 1.706 1.778zM83.2 27.542c0 .982-.764 1.778-1.706 1.778s-1.706-.796-1.706-1.778.764-1.778 1.706-1.778 1.706.796 1.706 1.778zM16.393 10.055c0 .982-.764 1.778-1.706 1.778s-1.706-.796-1.706-1.778.764-1.778 1.706-1.778 1.706.796 1.706 1.778zM20.088 7.684c0 .982-.764 1.778-1.706 1.778s-1.706-.796-1.706-1.778.764-1.778 1.706-1.778 1.706.796 1.706 1.778zM24.353 5.016c0 .982-.764 1.778-1.706 1.778s-1.706-.796-1.706-1.778.764-1.778 1.706-1.778 1.706.796 1.706 1.778zM28.332 2.645c0 .982-.764 1.778-1.706 1.778s-1.706-.796-1.706-1.778.764-1.778 1.706-1.778 1.706.796 1.706 1.778zM9.285 9.758c0 .982-.764 1.778-1.706 1.778s-1.706-.796-1.706-1.778.764-1.778 1.706-1.778 1.706.796 1.706 1.778zM12.98 7.387c0 .982-.764 1.778-1.706 1.778s-1.706-.796-1.706-1.778.764-1.778 1.706-1.778 1.706.796 1.706 1.778zM17.244 4.72c0 .982-.764 1.778-1.706 1.778s-1.706-.796-1.706-1.778.764-1.778 1.706-1.778 1.706.796 1.706 1.778zM21.224 2.349c0 .982-.764 1.778-1.706 1.778s-1.706-.796-1.706-1.778.764-1.778 1.706-1.778 1.706.796 1.706 1.778zM25.204 29.616c0 .982-.764 1.778-1.706 1.778s-1.706-.796-1.706-1.778.764-1.778 1.706-1.778 1.706.796 1.706 1.778zM28.899 27.245c0 .982-.764 1.778-1.706 1.778s-1.706-.796-1.706-1.778.764-1.778 1.706-1.778 1.706.796 1.706 1.778zM33.163 24.578c0 .982-.764 1.778-1.706 1.778s-1.706-.796-1.706-1.778.764-1.778 1.706-1.778 1.706.796 1.706 1.778zM37.144 22.206c0 .982-.764 1.778-1.706 1.778s-1.706-.796-1.706-1.778.764-1.778 1.706-1.778 1.706.796 1.706 1.778zM20.656 27.838c0 .982-.764 1.778-1.706 1.778s-1.706-.796-1.706-1.778.764-1.778 1.706-1.778 1.706.796 1.706 1.778zM24.351 25.467c0 .982-.764 1.778-1.706 1.778s-1.706-.796-1.706-1.778.764-1.778 1.706-1.778 1.706.796 1.706 1.778zM28.615 22.8c0 .982-.764 1.778-1.706 1.778s-1.706-.796-1.706-1.778.764-1.778 1.706-1.778 1.706.796 1.706 1.778zM32.596 20.429c0 .982-.764 1.778-1.706 1.778s-1.706-.796-1.706-1.778.764-1.778 1.706-1.778 1.706.796 1.706 1.778zM22.361 21.614c0 .982-.764 1.778-1.706 1.778s-1.706-.796-1.706-1.778.764-1.778 1.706-1.778 1.706.796 1.706 1.778zM26.056 19.243c0 .982-.764 1.778-1.706 1.778s-1.706-.796-1.706-1.778.764-1.778 1.706-1.778 1.706.796 1.706 1.778zM30.322 16.575c0 .982-.764 1.778-1.706 1.778s-1.706-.796-1.706-1.778.764-1.778 1.706-1.778 1.706.796 1.706 1.778zM34.301 14.204c0 .982-.764 1.778-1.706 1.778s-1.706-.796-1.706-1.778.764-1.778 1.706-1.778 1.706.796 1.706 1.778zM22.361 11.24c0 .982-.764 1.778-1.706 1.778s-1.706-.796-1.706-1.778.764-1.778 1.706-1.778 1.706.796 1.706 1.778zM26.056 8.869c0 .982-.764 1.778-1.706 1.778s-1.706-.796-1.706-1.778.764-1.778 1.706-1.778 1.706.796 1.706 1.778zM30.322 6.202c0 .982-.764 1.778-1.706 1.778s-1.706-.796-1.706-1.778.764-1.778 1.706-1.778 1.706.796 1.706 1.778zM34.301 3.831c0 .982-.764 1.778-1.706 1.778s-1.706-.796-1.706-1.778.764-1.778 1.706-1.778 1.706.796 1.706 1.778zM21.508 16.872c0 .982-.764 1.778-1.706 1.778s-1.706-.796-1.706-1.778.764-1.778 1.706-1.778 1.706.796 1.706 1.778zM25.205 14.501c0 .982-.764 1.778-1.706 1.778s-1.706-.796-1.706-1.778.764-1.778 1.706-1.778 1.706.796 1.706 1.778zM29.468 11.833c0 .982-.764 1.778-1.706 1.778s-1.706-.796-1.706-1.778.764-1.778 1.706-1.778 1.706.796 1.706 1.778zM33.448 9.462c0 .982-.764 1.778-1.706 1.778s-1.706-.796-1.706-1.778.764-1.778 1.706-1.778 1.706.796 1.706 1.778zM3.598 8.276c0 .982-.764 1.778-1.706 1.778S.186 9.258.186 8.276.95 6.498 1.892 6.498s1.706.796 1.706 1.778zM7.295 5.905c0 .982-.764 1.778-1.706 1.778s-1.706-.796-1.706-1.778.764-1.778 1.706-1.778 1.706.796 1.706 1.778zM11.559 3.238c0 .982-.764 1.778-1.706 1.778S8.147 4.22 8.147 3.238 8.911 1.46 9.853 1.46s1.706.796 1.706 1.778z"/><path fill="#f8d24e" style="fill:var(--color3,#f8d24e)" d="M9.569 10.055c.942 0 1.706-.796 1.706-1.778s-.764-1.778-1.706-1.778-1.706.796-1.706 1.778.764 1.778 1.706 1.778z"/></symbol><symbol id="icon-wave-left" viewBox="0 0 96 32"><path fill="#f8d24e" style="fill:var(--color3,#f8d24e)" d="M77.548 16.522c.213 1.449-.741 2.803-2.13 3.025s-2.689-.772-2.902-2.221c-.213-1.449.741-2.803 2.13-3.025s2.689.772 2.902 2.221zM82.485 12.152c.213 1.449-.741 2.803-2.13 3.025s-2.689-.772-2.902-2.221c-.213-1.449.741-2.803 2.13-3.025s2.689.772 2.902 2.221zM88.197 7.212c.213 1.449-.741 2.803-2.13 3.025s-2.689-.772-2.902-2.221c-.213-1.449.741-2.803 2.13-3.025s2.689.772 2.902 2.221zM93.554 2.776c.213 1.449-.741 2.803-2.13 3.025s-2.689-.772-2.902-2.221c-.213-1.449.741-2.803 2.13-3.025s2.689.772 2.902 2.221zM3.135 12.98c0 1.466-1.146 2.654-2.56 2.654s-2.56-1.188-2.56-2.654 1.146-2.654 2.56-2.654 2.56 1.188 2.56 2.654zM9.537 8.999c0 1.466-1.146 2.654-2.56 2.654s-2.56-1.188-2.56-2.654 1.146-2.654 2.56-2.654 2.56 1.188 2.56 2.654zM15.508 5.46c0 1.466-1.146 2.654-2.56 2.654s-2.56-1.188-2.56-2.654 1.146-2.654 2.56-2.654 2.56 1.188 2.56 2.654zM.151 23.153c0 1.466-1.146 2.654-2.56 2.654s-2.56-1.188-2.56-2.654 1.146-2.654 2.56-2.654 2.56 1.188 2.56 2.654zM5.697 19.615c0 1.466-1.146 2.654-2.56 2.654s-2.56-1.188-2.56-2.654 1.146-2.654 2.56-2.654 2.56 1.188 2.56 2.654zM12.097 15.634c0 1.466-1.146 2.654-2.56 2.654s-2.56-1.188-2.56-2.654 1.146-2.654 2.56-2.654 2.56 1.188 2.56 2.654zM18.069 12.095c0 1.466-1.146 2.654-2.56 2.654s-2.56-1.188-2.56-2.654 1.146-2.654 2.56-2.654 2.56 1.188 2.56 2.654zM6.549 26.692c0 1.466-1.146 2.654-2.56 2.654s-2.56-1.188-2.56-2.654 1.146-2.654 2.56-2.654 2.56 1.188 2.56 2.654zM12.096 23.153c0 1.466-1.146 2.654-2.56 2.654s-2.56-1.188-2.56-2.654 1.146-2.654 2.56-2.654 2.56 1.188 2.56 2.654zM18.495 19.172c0 1.466-1.146 2.654-2.56 2.654s-2.56-1.188-2.56-2.654 1.146-2.654 2.56-2.654 2.56 1.188 2.56 2.654zM24.467 15.634c0 1.466-1.146 2.654-2.56 2.654s-2.56-1.188-2.56-2.654 1.146-2.654 2.56-2.654 2.56 1.188 2.56 2.654zM13.801 28.904c0 1.466-1.146 2.654-2.56 2.654s-2.56-1.188-2.56-2.654 1.146-2.654 2.56-2.654 2.56 1.188 2.56 2.654zM19.347 25.365c0 1.466-1.146 2.654-2.56 2.654s-2.56-1.188-2.56-2.654 1.146-2.654 2.56-2.654 2.56 1.188 2.56 2.654zM25.748 21.384c0 1.466-1.146 2.654-2.56 2.654s-2.56-1.188-2.56-2.654 1.146-2.654 2.56-2.654 2.56 1.188 2.56 2.654zM31.719 17.846c0 1.466-1.146 2.654-2.56 2.654s-2.56-1.188-2.56-2.654 1.146-2.654 2.56-2.654 2.56 1.188 2.56 2.654z"/><path fill="#f8d24e" style="fill:var(--color3,#f8d24e)" d="M23.188 29.346c0 1.466-1.146 2.654-2.56 2.654s-2.56-1.188-2.56-2.654 1.146-2.654 2.56-2.654 2.56 1.188 2.56 2.654zM28.734 25.808c0 1.466-1.146 2.654-2.56 2.654s-2.56-1.188-2.56-2.654 1.146-2.654 2.56-2.654 2.56 1.188 2.56 2.654zM35.134 21.827c0 1.466-1.146 2.654-2.56 2.654s-2.56-1.188-2.56-2.654 1.146-2.654 2.56-2.654 2.56 1.188 2.56 2.654zM41.106 18.288c0 1.466-1.146 2.654-2.56 2.654s-2.56-1.188-2.56-2.654 1.146-2.654 2.56-2.654 2.56 1.188 2.56 2.654zM34.281 29.346c0 1.466-1.146 2.654-2.56 2.654s-2.56-1.188-2.56-2.654 1.146-2.654 2.56-2.654 2.56 1.188 2.56 2.654zM39.826 25.808c0 1.466-1.146 2.654-2.56 2.654s-2.56-1.188-2.56-2.654 1.146-2.654 2.56-2.654 2.56 1.188 2.56 2.654zM46.226 21.826c0 1.466-1.146 2.654-2.56 2.654s-2.56-1.188-2.56-2.654 1.146-2.654 2.56-2.654 2.56 1.188 2.56 2.654zM52.2 18.288c0 1.466-1.146 2.654-2.56 2.654s-2.56-1.188-2.56-2.654 1.146-2.654 2.56-2.654 2.56 1.188 2.56 2.654z"/><path fill="#f8d24e" style="fill:var(--color3,#f8d24e)" d="M43.665 28.904c0 1.466-1.146 2.654-2.56 2.654s-2.56-1.188-2.56-2.654 1.146-2.654 2.56-2.654 2.56 1.188 2.56 2.654zM49.211 25.365c0 1.466-1.146 2.654-2.56 2.654s-2.56-1.188-2.56-2.654 1.146-2.654 2.56-2.654 2.56 1.188 2.56 2.654zM55.611 21.384c0 1.466-1.146 2.654-2.56 2.654s-2.56-1.188-2.56-2.654 1.146-2.654 2.56-2.654 2.56 1.188 2.56 2.654zM61.583 17.846c0 1.466-1.146 2.654-2.56 2.654s-2.56-1.188-2.56-2.654 1.146-2.654 2.56-2.654 2.56 1.188 2.56 2.654zM54.33 28.461c0 1.466-1.146 2.654-2.56 2.654s-2.56-1.188-2.56-2.654 1.146-2.654 2.56-2.654 2.56 1.188 2.56 2.654zM59.876 24.923c0 1.466-1.146 2.654-2.56 2.654s-2.56-1.188-2.56-2.654 1.146-2.654 2.56-2.654 2.56 1.188 2.56 2.654zM66.277 20.942c0 1.466-1.146 2.654-2.56 2.654s-2.56-1.188-2.56-2.654 1.146-2.654 2.56-2.654 2.56 1.188 2.56 2.654zM72.248 17.403c0 1.466-1.146 2.654-2.56 2.654s-2.56-1.188-2.56-2.654 1.146-2.654 2.56-2.654 2.56 1.188 2.56 2.654z"/><path fill="#f8d24e" style="fill:var(--color3,#f8d24e)" d="M64.143 16.961c0 1.466-1.146 2.654-2.56 2.654s-2.56-1.188-2.56-2.654 1.146-2.654 2.56-2.654 2.56 1.188 2.56 2.654zM69.689 13.422c0 1.466-1.146 2.654-2.56 2.654s-2.56-1.188-2.56-2.654 1.146-2.654 2.56-2.654 2.56 1.188 2.56 2.654zM76.088 9.442c0 1.466-1.146 2.654-2.56 2.654s-2.56-1.188-2.56-2.654 1.146-2.654 2.56-2.654 2.56 1.188 2.56 2.654zM82.061 5.903c0 1.466-1.146 2.654-2.56 2.654s-2.56-1.188-2.56-2.654 1.146-2.654 2.56-2.654 2.56 1.188 2.56 2.654z"/></symbol><symbol id="icon-shadow" viewBox="0 0 27 32"><path fill="#fcfcfc" style="fill:var(--color4,#fcfcfc)" opacity=".44" d="m16.31 5.301 1.327.45 1.189.612.965.612.741 1.043.603 1.673.224 1.241-.125.414-.194.378-.509.72-.103.845v.845l.517.306.362.396.138.414.052.378.052.828.241 1.763-.103 1.115-.147.54-.146.54-.802.81-.957.756-1.043.333-1.198.279-.914.918-1.017 1.061-.741 1.097-.776.504-.638.558H5.689v-2.662l.276-1.673.396-1.925.069-2.572-.672-1.439-.414-1.277v-1.223l.414-1.439.302-.935.371-.864.81-.639.896-.585 1.276-.36.646-.153.577-.189.448-.899.431-.917.655-.621.793-.549.862-.324.793-.18h1.689z"/></symbol></defs></svg>