<svg aria-hidden="true" style="width:0;height:0;position:absolute;overflow:hidden" xmlns="http://www.w3.org/2000/svg"><defs><symbol id="facebook" viewBox="0 0 14 32"><path fill="#84a178" style="fill:var(--color1,#84a178)" d="M13.513 15.879H9.337v15.393H3.01V15.879H.001v-5.41H3.01V6.968C3.01 4.465 4.192.544 9.394.544l4.687.02v5.251H10.68c-.558 0-1.342.28-1.342 1.475v3.184h4.729l-.553 5.405z"/></symbol><symbol id="githab" viewBox="0 0 32 32"><path fill="#84a178" style="fill:var(--color1,#84a178)" d="M15.999.847C7.728.847.94 7.636.94 15.909c0 7.06 4.953 13.473 11.529 15.062v-4.983c-.652.143-1.251.147-1.915-.049-.89-.263-1.613-.856-2.15-1.76-.342-.577-.949-1.203-1.581-1.157l-.155-1.758c1.368-.117 2.551.834 3.254 2.014.312.525.671.833 1.132.969.446.131.924.068 1.481-.129.14-1.116.651-1.534 1.037-2.123v-.001c-3.922-.585-5.486-2.667-6.106-4.309-.822-2.181-.381-4.907 1.073-6.629.028-.034.079-.121.059-.183-.667-2.014.146-3.68.176-3.857.769.228.894-.229 3.342 1.258l.423.254c.177.105.121.045.298.032a12.77 12.77 0 0 1 3.16-.445 12.84 12.84 0 0 1 3.204.456l.137.014c-.012-.002.037-.009.12-.058 3.057-1.852 2.947-1.247 3.767-1.513.03.177.831 1.87.172 3.859-.089.274 2.651 2.783 1.132 6.811-.62 1.644-2.183 3.725-6.106 4.31v.001c.503.767 1.107 1.174 1.104 2.756v6.22c6.577-1.589 11.529-8.003 11.529-15.062 0-8.273-6.788-15.062-15.059-15.062z"/></symbol><symbol id="telegram" viewBox="0 0 40 32"><path fill="#84a178" style="fill:var(--color1,#84a178)" d="m16.205 20.638-.635 8.341c.909 0 1.302-.364 1.774-.802l4.261-3.801 8.829 6.036c1.619.843 2.76.399 3.197-1.391l5.797-25.352c.514-2.235-.866-3.108-2.443-2.56L2.92 13.284c-2.325.842-2.29 2.052-.395 2.601l8.709 2.529L31.463 6.597c.952-.589 1.818-.263 1.106.326L16.205 20.64z"/></symbol></defs></svg>