<svg aria-hidden="true" style="width:0;height:0;position:absolute;overflow:hidden" xmlns="http://www.w3.org/2000/svg"><defs><symbol id="icon-menu_close" viewBox="0 0 32 32"><path d="M23.884 6.706 16 14.59 8.116 6.706a.995.995 0 0 0-1.38.031 1 1 0 0 0-.031 1.38l7.88 7.884-7.882 7.882a1.002 1.002 0 0 0-.018 1.427.998.998 0 0 0 1.427-.015l7.886-7.882 7.884 7.884a1 1 0 0 0 1.38-.03 1 1 0 0 0 .03-1.38l-7.884-7.884 7.884-7.886a1.002 1.002 0 0 0 .018-1.427.998.998 0 0 0-1.427.015v.002z"/></symbol><symbol id="icon-menu_burger" viewBox="0 0 32 32"><path fill="none" stroke="#fff" style="stroke:var(--color1,#fff)" stroke-linecap="round" stroke-width="2" d="M6 10h20M6 16h20M6 22h20"/></symbol><symbol id="btn-open-modal-products_icon" viewBox="0 0 102 32"><path d="M101.414 17.414a2 2 0 0 0 0-2.828L88.686 1.858a2 2 0 1 0-2.828 2.828L97.172 16 85.858 27.314a2 2 0 1 0 2.828 2.828l12.728-12.728zM0 18h100v-4H0v4z"/></symbol><symbol id="icon-modal-close" viewBox="0 0 30 32"><path d="m16.239 15.371 6.935-7.007a.853.853 0 0 0-.044-1.147.83.83 0 0 0-1.136-.044l-6.935 7.007-6.935-7.016a.833.833 0 0 0-1.188 0 .85.85 0 0 0 0 1.2l6.944 7.007-6.944 7.007a.837.837 0 0 0-.292.61.865.865 0 0 0 .244.63.84.84 0 0 0 .623.247.835.835 0 0 0 .603-.295l6.944-7.007 6.935 7.007a.828.828 0 0 0 1.136-.044.852.852 0 0 0 .044-1.147l-6.935-7.007z"/></symbol></defs></svg>