<svg
  aria-hidden="true"
  style="position: absolute; width: 0; height: 0; overflow: hidden;"
  version="1.1"
  xmlns="http://www.w3.org/2000/svg"
  xmlns:xlink="http://www.w3.org/1999/xlink"
>
<defs>
<symbol id="facebook" viewBox="0 0 14 32">
<path
        fill="#84a178"
        style="fill: var(--color1, #84a178)"
        d="M13.513 15.879h-4.176v15.393h-6.327v-15.393h-3.009v-5.41h3.009v-3.501c0-2.503 1.182-6.424 6.384-6.424l4.687 0.020v5.251h-3.401c-0.558 0-1.342 0.28-1.342 1.475v3.184h4.729l-0.553 5.405z"
      />
</symbol>
<symbol id="githab" viewBox="0 0 32 32">
<path
        fill="#84a178"
        style="fill: var(--color1, #84a178)"
        d="M15.999 0.847c-8.271 0-15.059 6.789-15.059 15.062 0 7.060 4.953 13.473 11.529 15.062v-4.983c-0.652 0.143-1.251 0.147-1.915-0.049-0.89-0.263-1.613-0.856-2.15-1.76-0.342-0.577-0.949-1.203-1.581-1.157l-0.155-1.758c1.368-0.117 2.551 0.834 3.254 2.014 0.312 0.525 0.671 0.833 1.132 0.969 0.446 0.131 0.924 0.068 1.481-0.129 0.14-1.116 0.651-1.534 1.037-2.123v-0.001c-3.922-0.585-5.486-2.667-6.106-4.309-0.822-2.181-0.381-4.907 1.073-6.629 0.028-0.034 0.079-0.121 0.059-0.183-0.667-2.014 0.146-3.68 0.176-3.857 0.769 0.228 0.894-0.229 3.342 1.258l0.423 0.254c0.177 0.105 0.121 0.045 0.298 0.032 1.022-0.278 2.099-0.431 3.16-0.445 1.069 0.014 2.14 0.167 3.204 0.456l0.137 0.014c-0.012-0.002 0.037-0.009 0.12-0.058 3.057-1.852 2.947-1.247 3.767-1.513 0.030 0.177 0.831 1.87 0.172 3.859-0.089 0.274 2.651 2.783 1.132 6.811-0.62 1.644-2.183 3.725-6.106 4.31v0.001c0.503 0.767 1.107 1.174 1.104 2.756v6.22c6.577-1.589 11.529-8.003 11.529-15.062 0-8.273-6.788-15.062-15.059-15.062v0z"
      />
</symbol>
<symbol id="telegram" viewBox="0 0 40 32">
<path
        fill="#84a178"
        style="fill: var(--color1, #84a178)"
        d="M16.205 20.638l-0.635 8.341c0.909 0 1.302-0.364 1.774-0.802l4.261-3.801 8.829 6.036c1.619 0.843 2.76 0.399 3.197-1.391l5.797-25.352c0.514-2.235-0.866-3.108-2.443-2.56l-34.065 12.175c-2.325 0.842-2.29 2.052-0.395 2.601l8.709 2.529 20.229-11.817c0.952-0.589 1.818-0.263 1.106 0.326l-16.364 13.717z"
      />
</symbol>

<symbol id="icon-menu_close" viewBox="0 0 32 32">
  <path  d="M23.884 6.706l-7.884 7.884-7.884-7.884c-0.19-0.174-0.439-0.267-0.696-0.261s-0.502 0.11-0.684 0.292c-0.182 0.182-0.286 0.427-0.292 0.684s0.088 0.506 0.261 0.696l7.88 7.884-7.882 7.882c-0.096 0.092-0.173 0.202-0.226 0.324s-0.081 0.253-0.083 0.386 0.023 0.265 0.073 0.388c0.050 0.123 0.124 0.235 0.218 0.329s0.206 0.169 0.329 0.219 0.255 0.075 0.388 0.074c0.133-0.002 0.264-0.029 0.386-0.082s0.232-0.13 0.324-0.226l7.886-7.882 7.884 7.884c0.19 0.174 0.439 0.267 0.696 0.262s0.502-0.11 0.684-0.292c0.182-0.182 0.286-0.427 0.292-0.684s-0.088-0.506-0.262-0.696l-7.884-7.884 7.884-7.886c0.096-0.092 0.173-0.202 0.226-0.324s0.081-0.253 0.083-0.386c0.002-0.133-0.023-0.265-0.073-0.388s-0.124-0.235-0.218-0.329c-0.094-0.094-0.206-0.169-0.329-0.219s-0.255-0.075-0.388-0.074-0.264 0.029-0.386 0.082c-0.122 0.053-0.232 0.13-0.324 0.226v0.002z"></path>
</symbol>

<symbol id="icon-menu_burger" viewBox="0 0 32 32">
<path fill="none" stroke="#fff" style="stroke: var(--color1, #fff)" stroke-linejoin="miter" stroke-linecap="round" stroke-miterlimit="4" stroke-width="2" d="M6 10h20"></path>
<path fill="none" stroke="#fff" style="stroke: var(--color1, #fff)" stroke-linejoin="miter" stroke-linecap="round" stroke-miterlimit="4" stroke-width="2" d="M6 16h20"></path>
<path fill="none" stroke="#fff" style="stroke: var(--color1, #fff)" stroke-linejoin="miter" stroke-linecap="round" stroke-miterlimit="4" stroke-width="2" d="M6 22h20"></path>
</symbol>

<symbol id="btn-open-modal-products_icon" viewBox="0 0 102 32">
<path d="M101.414 17.414c0.781-0.781 0.781-2.047 0-2.828l-12.728-12.728c-0.781-0.781-2.047-0.781-2.828 0s-0.781 2.047 0 2.828l11.314 11.314-11.314 11.314c-0.781 0.781-0.781 2.047 0 2.828s2.047 0.781 2.828 0l12.728-12.728zM0 18h100v-4h-100v4z"></path>
</symbol>

<symbol id="icon-modal-close" viewBox="0 0 30 32">
  <path d="M16.239 15.371l6.935-7.007c0.137-0.162 0.209-0.37 0.201-0.582s-0.095-0.415-0.245-0.565c-0.149-0.151-0.349-0.239-0.559-0.247s-0.416 0.064-0.577 0.203l-6.935 7.007-6.935-7.016c-0.158-0.159-0.371-0.249-0.594-0.249s-0.436 0.089-0.594 0.249c-0.158 0.159-0.246 0.375-0.246 0.6s0.088 0.441 0.246 0.6l6.944 7.007-6.944 7.007c-0.088 0.076-0.159 0.169-0.209 0.274s-0.078 0.219-0.083 0.336c-0.004 0.116 0.015 0.232 0.057 0.341s0.106 0.207 0.187 0.289c0.082 0.082 0.179 0.147 0.286 0.189s0.222 0.062 0.337 0.058c0.115-0.005 0.228-0.033 0.332-0.084s0.196-0.123 0.271-0.211l6.944-7.007 6.935 7.007c0.16 0.138 0.366 0.211 0.577 0.203s0.41-0.096 0.559-0.247c0.149-0.15 0.236-0.352 0.245-0.565s-0.064-0.421-0.201-0.582l-6.935-7.007z"></path>
</symbol>
</defs>
</svg>
