<svg
  aria-hidden="true"
  style="position: absolute; width: 0; height: 0; overflow: hidden;"
  version="1.1"
  xmlns="http://www.w3.org/2000/svg"
  xmlns:xlink="http://www.w3.org/1999/xlink"
>
<defs>
<symbol id="facebook" viewBox="0 0 14 32">
<path
        fill="#84a178"
        style="fill: var(--color1, #84a178)"
        d="M13.513 15.879h-4.176v15.393h-6.327v-15.393h-3.009v-5.41h3.009v-3.501c0-2.503 1.182-6.424 6.384-6.424l4.687 0.020v5.251h-3.401c-0.558 0-1.342 0.28-1.342 1.475v3.184h4.729l-0.553 5.405z"
      />
</symbol>
<symbol id="githab" viewBox="0 0 32 32">
<path
        fill="#84a178"
        style="fill: var(--color1, #84a178)"
        d="M15.999 0.847c-8.271 0-15.059 6.789-15.059 15.062 0 7.060 4.953 13.473 11.529 15.062v-4.983c-0.652 0.143-1.251 0.147-1.915-0.049-0.89-0.263-1.613-0.856-2.15-1.76-0.342-0.577-0.949-1.203-1.581-1.157l-0.155-1.758c1.368-0.117 2.551 0.834 3.254 2.014 0.312 0.525 0.671 0.833 1.132 0.969 0.446 0.131 0.924 0.068 1.481-0.129 0.14-1.116 0.651-1.534 1.037-2.123v-0.001c-3.922-0.585-5.486-2.667-6.106-4.309-0.822-2.181-0.381-4.907 1.073-6.629 0.028-0.034 0.079-0.121 0.059-0.183-0.667-2.014 0.146-3.68 0.176-3.857 0.769 0.228 0.894-0.229 3.342 1.258l0.423 0.254c0.177 0.105 0.121 0.045 0.298 0.032 1.022-0.278 2.099-0.431 3.16-0.445 1.069 0.014 2.14 0.167 3.204 0.456l0.137 0.014c-0.012-0.002 0.037-0.009 0.12-0.058 3.057-1.852 2.947-1.247 3.767-1.513 0.030 0.177 0.831 1.87 0.172 3.859-0.089 0.274 2.651 2.783 1.132 6.811-0.62 1.644-2.183 3.725-6.106 4.31v0.001c0.503 0.767 1.107 1.174 1.104 2.756v6.22c6.577-1.589 11.529-8.003 11.529-15.062 0-8.273-6.788-15.062-15.059-15.062v0z"
      />
</symbol>
<symbol id="telegram" viewBox="0 0 40 32">
<path
        fill="#84a178"
        style="fill: var(--color1, #84a178)"
        d="M16.205 20.638l-0.635 8.341c0.909 0 1.302-0.364 1.774-0.802l4.261-3.801 8.829 6.036c1.619 0.843 2.76 0.399 3.197-1.391l5.797-25.352c0.514-2.235-0.866-3.108-2.443-2.56l-34.065 12.175c-2.325 0.842-2.29 2.052-0.395 2.601l8.709 2.529 20.229-11.817c0.952-0.589 1.818-0.263 1.106 0.326l-16.364 13.717z"
      />
</symbol>
<symbol id="close" viewBox="0 0 32 32"><path
        d="m26.667 7.303-1.97-1.97-7.808 7.808-7.808-7.808-1.97 1.97 7.808 7.808-7.808 7.808 1.97 1.97 7.808-7.808 7.808 7.808 1.97-1.97-7.808-7.808 7.808-7.808z"
      /></symbol>
<symbol id="company1" viewBox="0 0 28 32">
</defs>
</svg>
