<svg
  aria-hidden="true"
  style="position: absolute; width: 0; height: 0; overflow: hidden;"
  version="1.1"
  xmlns="http://www.w3.org/2000/svg"
  xmlns:xlink="http://www.w3.org/1999/xlink">
<defs>
<symbol id="icon-menu_close" viewBox="0 0 32 32">
  <path  d="M23.884 6.706l-7.884 7.884-7.884-7.884c-0.19-0.174-0.439-0.267-0.696-0.261s-0.502 0.11-0.684 0.292c-0.182 0.182-0.286 0.427-0.292 0.684s0.088 0.506 0.261 0.696l7.88 7.884-7.882 7.882c-0.096 0.092-0.173 0.202-0.226 0.324s-0.081 0.253-0.083 0.386 0.023 0.265 0.073 0.388c0.050 0.123 0.124 0.235 0.218 0.329s0.206 0.169 0.329 0.219 0.255 0.075 0.388 0.074c0.133-0.002 0.264-0.029 0.386-0.082s0.232-0.13 0.324-0.226l7.886-7.882 7.884 7.884c0.19 0.174 0.439 0.267 0.696 0.262s0.502-0.11 0.684-0.292c0.182-0.182 0.286-0.427 0.292-0.684s-0.088-0.506-0.262-0.696l-7.884-7.884 7.884-7.886c0.096-0.092 0.173-0.202 0.226-0.324s0.081-0.253 0.083-0.386c0.002-0.133-0.023-0.265-0.073-0.388s-0.124-0.235-0.218-0.329c-0.094-0.094-0.206-0.169-0.329-0.219s-0.255-0.075-0.388-0.074-0.264 0.029-0.386 0.082c-0.122 0.053-0.232 0.13-0.324 0.226v0.002z"></path>
</symbol>

<symbol id="icon-menu_burger" viewBox="0 0 32 32">
<path fill="none" stroke="#fff" style="stroke: var(--color1, #fff)" stroke-linejoin="miter" stroke-linecap="round" stroke-miterlimit="4" stroke-width="2" d="M6 10h20"></path>
<path fill="none" stroke="#fff" style="stroke: var(--color1, #fff)" stroke-linejoin="miter" stroke-linecap="round" stroke-miterlimit="4" stroke-width="2" d="M6 16h20"></path>
<path fill="none" stroke="#fff" style="stroke: var(--color1, #fff)" stroke-linejoin="miter" stroke-linecap="round" stroke-miterlimit="4" stroke-width="2" d="M6 22h20"></path>
</symbol>

<symbol id="btn-open-modal-products_icon" viewBox="0 0 102 32">
<path d="M101.414 17.414c0.781-0.781 0.781-2.047 0-2.828l-12.728-12.728c-0.781-0.781-2.047-0.781-2.828 0s-0.781 2.047 0 2.828l11.314 11.314-11.314 11.314c-0.781 0.781-0.781 2.047 0 2.828s2.047 0.781 2.828 0l12.728-12.728zM0 18h100v-4h-100v4z"></path>
</symbol>

<symbol id="icon-modal-close" viewBox="0 0 30 32">
  <path d="M16.239 15.371l6.935-7.007c0.137-0.162 0.209-0.37 0.201-0.582s-0.095-0.415-0.245-0.565c-0.149-0.151-0.349-0.239-0.559-0.247s-0.416 0.064-0.577 0.203l-6.935 7.007-6.935-7.016c-0.158-0.159-0.371-0.249-0.594-0.249s-0.436 0.089-0.594 0.249c-0.158 0.159-0.246 0.375-0.246 0.6s0.088 0.441 0.246 0.6l6.944 7.007-6.944 7.007c-0.088 0.076-0.159 0.169-0.209 0.274s-0.078 0.219-0.083 0.336c-0.004 0.116 0.015 0.232 0.057 0.341s0.106 0.207 0.187 0.289c0.082 0.082 0.179 0.147 0.286 0.189s0.222 0.062 0.337 0.058c0.115-0.005 0.228-0.033 0.332-0.084s0.196-0.123 0.271-0.211l6.944-7.007 6.935 7.007c0.16 0.138 0.366 0.211 0.577 0.203s0.41-0.096 0.559-0.247c0.149-0.15 0.236-0.352 0.245-0.565s-0.064-0.421-0.201-0.582l-6.935-7.007z"></path>
</symbol>


</defs>
</svg>