<svg aria-hidden="true" style="position: absolute; width: 0; height: 0; overflow: hidden;" version="1.1" xmlns="http://www.w3.org/2000/svg" xmlns:xlink="http://www.w3.org/1999/xlink">
<defs>
<symbol id="icon-smile" viewBox="0 0 30 32">
<path fill="#fff" style="fill: var(--color1, #fff)" d="M16.536 8.8c0.637 0.35 1.64-0.169 2.242-1.159s0.573-2.075-0.063-2.424c-0.637-0.35-1.64 0.169-2.242 1.158s-0.573 2.075 0.063 2.424z"></path>
<path fill="#000" style="fill: var(--color2, #000)" d="M18.667 5.297c0.579 0.318 0.592 1.37 0.027 2.298s-1.53 1.443-2.109 1.125c-0.579-0.318-0.592-1.37-0.027-2.298s1.53-1.442 2.109-1.125zM18.764 5.137c-0.683-0.375-1.746 0.159-2.375 1.192s-0.585 2.176 0.099 2.551c0.683 0.375 1.747-0.159 2.375-1.192s0.585-2.175-0.099-2.551z"></path>
<path fill="#fff" style="fill: var(--color1, #fff)" d="M20.419 10.93c0.637 0.35 1.64-0.169 2.242-1.159s0.573-2.075-0.063-2.424c-0.637-0.35-1.64 0.169-2.242 1.159s-0.573 2.075 0.063 2.424z"></path>
<path fill="#000" style="fill: var(--color2, #000)" d="M22.549 7.427c0.579 0.318 0.592 1.37 0.027 2.298s-1.53 1.443-2.109 1.125c-0.579-0.318-0.592-1.37-0.027-2.298s1.53-1.442 2.109-1.125zM22.647 7.267c-0.683-0.375-1.747 0.159-2.375 1.192s-0.584 2.176 0.099 2.551c0.683 0.375 1.747-0.159 2.375-1.192s0.585-2.175-0.099-2.551z"></path>
<path fill="#000" style="fill: var(--color2, #000)" d="M17.089 7.891c0.357 0.196 0.916-0.088 1.248-0.634s0.312-1.148-0.045-1.344c-0.357-0.196-0.916 0.088-1.248 0.634s-0.312 1.148 0.045 1.344z"></path>
<path fill="#000" style="fill: var(--color2, #000)" d="M18.276 5.939c0.341 0.187 0.356 0.771 0.033 1.302s-0.863 0.81-1.204 0.623c-0.341-0.187-0.356-0.771-0.033-1.302s0.863-0.81 1.204-0.623zM18.309 5.885c-0.373-0.205-0.951 0.085-1.293 0.646s-0.316 1.182 0.057 1.387c0.373 0.205 0.951-0.085 1.293-0.646s0.316-1.182-0.057-1.387z"></path>
<path fill="#000" style="fill: var(--color2, #000)" d="M20.972 10.021c0.357 0.196 0.916-0.088 1.248-0.634s0.312-1.148-0.045-1.344c-0.357-0.196-0.916 0.088-1.248 0.634s-0.312 1.148 0.045 1.344z"></path>
<path fill="#000" style="fill: var(--color2, #000)" d="M22.159 8.069c0.341 0.187 0.356 0.771 0.033 1.302s-0.863 0.81-1.204 0.623c-0.341-0.187-0.356-0.771-0.033-1.302s0.863-0.81 1.204-0.623zM22.192 8.016c-0.373-0.205-0.951 0.085-1.293 0.646s-0.316 1.182 0.057 1.387c0.373 0.205 0.951-0.085 1.293-0.646s0.316-1.182-0.057-1.387z"></path>
<path fill="#fff" style="fill: var(--color1, #fff)" d="M17.855 7.134c0.215 0.118 0.52-0.002 0.682-0.268s0.119-0.577-0.096-0.695c-0.215-0.118-0.52 0.002-0.682 0.268s-0.119 0.577 0.096 0.695z"></path>
<path fill="#fff" style="fill: var(--color1, #fff)" d="M21.738 9.265c0.215 0.118 0.52-0.002 0.682-0.268s0.119-0.577-0.096-0.695c-0.215-0.118-0.52 0.002-0.682 0.268s-0.119 0.577 0.096 0.695z"></path>
<path fill="#000" style="fill: var(--color2, #000)" d="M18.175 3.822c0.717 0.048 1.367 0.407 1.77 0.973 0.14 0.197 0.48 0.014 0.34-0.184-0.486-0.683-1.244-1.102-2.111-1.16-0.25-0.017-0.248 0.355 0.001 0.371z"></path>
<path fill="#000" style="fill: var(--color2, #000)" d="M22.227 6.045c0.717 0.048 1.367 0.407 1.77 0.973 0.14 0.197 0.48 0.014 0.34-0.184-0.486-0.683-1.244-1.102-2.111-1.16-0.25-0.017-0.248 0.355 0.001 0.371z"></path>
<path fill="#fff" style="fill: var(--color1, #fff)" d="M5.322 17.943c0.593-0.19 0.809-1.091 0.483-2.014s-1.073-1.516-1.666-1.327c-0.593 0.19-0.809 1.091-0.483 2.014s1.073 1.516 1.666 1.327z"></path>
<path fill="#000" style="fill: var(--color2, #000)" d="M4.165 14.678c0.54-0.173 1.254 0.412 1.561 1.277s0.109 1.741-0.431 1.914c-0.54 0.173-1.254-0.412-1.561-1.277s-0.109-1.741 0.431-1.914zM4.112 14.528c-0.637 0.204-0.876 1.15-0.535 2.114s1.134 1.58 1.771 1.376c0.637-0.204 0.876-1.15 0.535-2.114s-1.134-1.58-1.771-1.376z"></path>
<path fill="#fff" style="fill: var(--color1, #fff)" d="M8.941 16.787c0.593-0.19 0.809-1.091 0.483-2.014s-1.073-1.516-1.666-1.327-0.809 1.091-0.483 2.014c0.327 0.922 1.073 1.516 1.666 1.327z"></path>
<path fill="#000" style="fill: var(--color2, #000)" d="M7.785 13.522c0.54-0.173 1.254 0.412 1.561 1.277s0.109 1.741-0.431 1.914-1.254-0.412-1.561-1.277c-0.306-0.865-0.109-1.741 0.431-1.914zM7.732 13.372c-0.637 0.204-0.876 1.15-0.535 2.114s1.134 1.58 1.771 1.376c0.637-0.204 0.876-1.15 0.535-2.114s-1.134-1.58-1.771-1.376z"></path>
<path fill="#000" style="fill: var(--color2, #000)" d="M5.022 17.096c0.333-0.107 0.456-0.606 0.276-1.115s-0.597-0.836-0.929-0.73c-0.333 0.107-0.456 0.606-0.276 1.115s0.597 0.836 0.929 0.73z"></path>
<path fill="#000" style="fill: var(--color2, #000)" d="M4.377 15.276c0.318-0.102 0.719 0.218 0.894 0.713s0.059 0.98-0.259 1.082c-0.318 0.102-0.719-0.218-0.894-0.713s-0.059-0.98 0.259-1.082zM4.359 15.226c-0.347 0.111-0.479 0.625-0.293 1.148s0.617 0.857 0.964 0.746 0.479-0.625 0.293-1.148c-0.185-0.523-0.617-0.857-0.964-0.746z"></path>
<path fill="#000" style="fill: var(--color2, #000)" d="M8.641 15.94c0.333-0.107 0.456-0.606 0.276-1.115s-0.597-0.836-0.929-0.73c-0.333 0.106-0.456 0.606-0.276 1.115s0.596 0.836 0.929 0.73z"></path>
<path fill="#000" style="fill: var(--color2, #000)" d="M7.997 14.12c0.318-0.102 0.719 0.218 0.894 0.713s0.059 0.98-0.259 1.082c-0.318 0.102-0.719-0.218-0.894-0.713s-0.059-0.98 0.259-1.082zM7.979 14.070c-0.347 0.111-0.479 0.625-0.293 1.148s0.617 0.857 0.964 0.746c0.347-0.111 0.479-0.625 0.293-1.148s-0.617-0.857-0.964-0.746z"></path>
<path fill="#fff" style="fill: var(--color1, #fff)" d="M4.455 16.306c0.2-0.064 0.292-0.317 0.204-0.565s-0.321-0.397-0.522-0.333c-0.2 0.064-0.292 0.317-0.204 0.565s0.321 0.397 0.522 0.333z"></path>
<path fill="#fff" style="fill: var(--color1, #fff)" d="M8.039 15.050c0.2-0.064 0.291-0.317 0.204-0.565s-0.321-0.397-0.522-0.333-0.292 0.317-0.204 0.565c0.088 0.248 0.321 0.397 0.522 0.333z"></path>
<path fill="#000" style="fill: var(--color2, #000)" d="M3.169 14.006c0.088-0.303 0.245-0.616 0.564-0.748 0.298-0.123 0.632-0.046 0.919 0.070 0.196 0.080 0.345-0.203 0.147-0.283-0.382-0.155-0.82-0.24-1.213-0.072-0.414 0.177-0.628 0.57-0.743 0.968-0.057 0.197 0.268 0.259 0.325 0.064z"></path>
<path fill="#000" style="fill: var(--color2, #000)" d="M6.987 12.474c0.833 0.089 1.69-0.020 2.464-0.324 0.196-0.077 0.091-0.378-0.106-0.3-0.719 0.282-1.516 0.397-2.291 0.314-0.211-0.023-0.28 0.287-0.067 0.31z"></path>
<path fill="#fff" style="fill: var(--color1, #fff)" d="M18.257 23.549c0.628 0.419 1.721-0.032 2.442-1.007s0.797-2.106 0.169-2.524c-0.628-0.419-1.721 0.032-2.442 1.008s-0.796 2.105-0.169 2.524z"></path>
<path fill="#000" style="fill: var(--color2, #000)" d="M20.809 20.096c0.571 0.381 0.482 1.475-0.194 2.39s-1.729 1.365-2.3 0.984c-0.571-0.381-0.483-1.475 0.193-2.39s1.73-1.365 2.3-0.984zM20.926 19.938c-0.673-0.449-1.83 0.012-2.583 1.031s-0.818 2.209-0.144 2.659c0.673 0.449 1.83-0.012 2.583-1.031s0.818-2.209 0.144-2.659z"></path>
<path fill="#fff" style="fill: var(--color1, #fff)" d="M22.085 26.102c0.628 0.419 1.721-0.032 2.442-1.008s0.796-2.105 0.169-2.524c-0.628-0.419-1.721 0.032-2.442 1.007s-0.796 2.106-0.169 2.524z"></path>
<path fill="#000" style="fill: var(--color2, #000)" d="M24.637 22.649c0.571 0.381 0.482 1.475-0.194 2.39s-1.729 1.365-2.3 0.984c-0.571-0.381-0.483-1.475 0.194-2.39s1.73-1.365 2.3-0.984zM24.754 22.491c-0.674-0.45-1.83 0.012-2.583 1.031s-0.818 2.209-0.144 2.659 1.83-0.012 2.583-1.031c0.753-1.019 0.818-2.209 0.144-2.659z"></path>
<path fill="#000" style="fill: var(--color2, #000)" d="M19.531 22.274c0.352 0.235 0.96-0.011 1.358-0.55s0.435-1.166 0.083-1.401c-0.352-0.235-0.96 0.011-1.358 0.55s-0.435 1.166-0.083 1.401z"></path>
<path fill="#000" style="fill: var(--color2, #000)" d="M20.953 20.349c0.336 0.225 0.295 0.832-0.091 1.356s-0.975 0.767-1.311 0.542c-0.336-0.225-0.295-0.832 0.092-1.356s0.975-0.766 1.311-0.542zM20.992 20.297c-0.368-0.245-0.997 0.005-1.405 0.558s-0.443 1.2-0.075 1.446 0.997-0.005 1.405-0.558c0.409-0.553 0.443-1.2 0.075-1.446z"></path>
<path fill="#000" style="fill: var(--color2, #000)" d="M23.414 24.864c0.352 0.235 0.96-0.011 1.358-0.55s0.435-1.166 0.083-1.401c-0.352-0.235-0.96 0.011-1.358 0.55s-0.435 1.166-0.083 1.401z"></path>
<path fill="#000" style="fill: var(--color2, #000)" d="M24.836 22.939c0.336 0.225 0.295 0.832-0.091 1.356s-0.975 0.767-1.311 0.542c-0.336-0.225-0.295-0.832 0.092-1.356s0.975-0.766 1.311-0.542zM24.875 22.887c-0.368-0.245-0.997 0.005-1.405 0.558s-0.443 1.2-0.075 1.446c0.367 0.245 0.997-0.005 1.405-0.558s0.443-1.2 0.075-1.446z"></path>
<path fill="#fff" style="fill: var(--color1, #fff)" d="M19.342 22.029c0.165 0.11 0.42 0.034 0.571-0.17s0.139-0.458-0.026-0.568c-0.165-0.11-0.42-0.034-0.571 0.17s-0.139 0.458 0.025 0.568z"></path>
<path fill="#fff" style="fill: var(--color1, #fff)" d="M23.242 24.709c0.165 0.11 0.42 0.034 0.571-0.17s0.139-0.458-0.025-0.568c-0.165-0.11-0.42-0.034-0.571 0.17s-0.139 0.458 0.026 0.568z"></path>
<path fill="#000" style="fill: var(--color2, #000)" d="M20.309 18.519c0.776 0.026 1.467 0.378 1.924 0.974 0.154 0.201 0.468-0.046 0.315-0.246-0.517-0.674-1.327-1.083-2.204-1.113-0.261-0.009-0.298 0.377-0.035 0.385z"></path>
<path fill="#000" style="fill: var(--color2, #000)" d="M24.821 21.135c0.732 0.25 1.272 0.79 1.517 1.488 0.083 0.236 0.452 0.073 0.37-0.161-0.278-0.793-0.924-1.409-1.75-1.691-0.246-0.084-0.384 0.28-0.137 0.365z"></path>
<path fill="#000" style="fill: var(--color2, #000)" d="M18.406 27.379c0.248-0.189 0.184-0.657-0.143-1.046s-0.794-0.551-1.043-0.362c-0.248 0.189-0.184 0.657 0.143 1.046s0.794 0.551 1.043 0.362z"></path>
<path fill="#000" style="fill: var(--color2, #000)" d="M18.136 27.638c0.505 0.337 0.959 0.551 1.013 0.479s-0.312-0.405-0.818-0.742c-0.506-0.337-0.959-0.551-1.013-0.479s0.312 0.405 0.818 0.742z"></path>
<path fill="#000" style="fill: var(--color2, #000)" d="M18.962 28.097c0.477 0.206 0.971 0.15 1.102-0.125s-0.148-0.665-0.626-0.871c-0.477-0.206-0.971-0.15-1.102 0.125s0.148 0.665 0.626 0.871z"></path>
</symbol>
<symbol id="icon-wave-right" viewBox="0 0 83 32">
<path fill="#f8d24e" style="fill: var(--color3, #f8d24e)" d="M33.733 29.616c0 0.982-0.764 1.778-1.706 1.778s-1.706-0.796-1.706-1.778c0-0.982 0.764-1.778 1.706-1.778s1.706 0.796 1.706 1.778z"></path>
<path fill="#f8d24e" style="fill: var(--color3, #f8d24e)" d="M37.429 27.245c0 0.982-0.764 1.778-1.706 1.778s-1.706-0.796-1.706-1.778c0-0.982 0.764-1.778 1.706-1.778s1.706 0.796 1.706 1.778z"></path>
<path fill="#f8d24e" style="fill: var(--color3, #f8d24e)" d="M41.692 24.578c0 0.982-0.764 1.778-1.706 1.778s-1.706-0.796-1.706-1.778c0-0.982 0.764-1.778 1.706-1.778s1.706 0.796 1.706 1.778z"></path>
<path fill="#f8d24e" style="fill: var(--color3, #f8d24e)" d="M45.673 22.206c0 0.982-0.764 1.778-1.706 1.778s-1.706-0.796-1.706-1.778c0-0.982 0.764-1.778 1.706-1.778s1.706 0.796 1.706 1.778z"></path>
<path fill="#f8d24e" style="fill: var(--color3, #f8d24e)" d="M43.398 28.431c0 0.982-0.764 1.778-1.706 1.778s-1.706-0.796-1.706-1.778c0-0.982 0.764-1.778 1.706-1.778s1.706 0.796 1.706 1.778z"></path>
<path fill="#f8d24e" style="fill: var(--color3, #f8d24e)" d="M47.094 26.060c0 0.982-0.764 1.778-1.706 1.778s-1.706-0.796-1.706-1.778c0-0.982 0.764-1.778 1.706-1.778s1.706 0.796 1.706 1.778z"></path>
<path fill="#f8d24e" style="fill: var(--color3, #f8d24e)" d="M51.358 23.392c0 0.982-0.764 1.778-1.706 1.778s-1.706-0.796-1.706-1.778c0-0.982 0.764-1.778 1.706-1.778s1.706 0.796 1.706 1.778z"></path>
<path fill="#f8d24e" style="fill: var(--color3, #f8d24e)" d="M55.339 21.021c0 0.982-0.764 1.778-1.706 1.778s-1.706-0.796-1.706-1.778c0-0.982 0.764-1.778 1.706-1.778s1.706 0.796 1.706 1.778z"></path>
<path fill="#f8d24e" style="fill: var(--color3, #f8d24e)" d="M51.643 27.542c0 0.982-0.764 1.778-1.706 1.778s-1.706-0.796-1.706-1.778c0-0.982 0.764-1.778 1.706-1.778s1.706 0.796 1.706 1.778z"></path>
<path fill="#f8d24e" style="fill: var(--color3, #f8d24e)" d="M55.34 25.171c0 0.982-0.764 1.778-1.706 1.778s-1.706-0.796-1.706-1.778c0-0.982 0.764-1.778 1.706-1.778s1.706 0.796 1.706 1.778z"></path>
<path fill="#f8d24e" style="fill: var(--color3, #f8d24e)" d="M59.604 22.503c0 0.982-0.764 1.778-1.706 1.778s-1.706-0.796-1.706-1.778c0-0.982 0.764-1.778 1.706-1.778s1.706 0.796 1.706 1.778z"></path>
<path fill="#f8d24e" style="fill: var(--color3, #f8d24e)" d="M63.583 20.132c0 0.982-0.764 1.778-1.706 1.778s-1.706-0.796-1.706-1.778c0-0.982 0.764-1.778 1.706-1.778s1.706 0.796 1.706 1.778z"></path>
<path fill="#f8d24e" style="fill: var(--color3, #f8d24e)" d="M59.603 26.356c0 0.982-0.764 1.778-1.706 1.778s-1.706-0.796-1.706-1.778c0-0.982 0.764-1.778 1.706-1.778s1.706 0.796 1.706 1.778z"></path>
<path fill="#f8d24e" style="fill: var(--color3, #f8d24e)" d="M63.298 23.985c0 0.982-0.764 1.778-1.706 1.778s-1.706-0.796-1.706-1.778c0-0.982 0.764-1.778 1.706-1.778s1.706 0.796 1.706 1.778z"></path>
<path fill="#f8d24e" style="fill: var(--color3, #f8d24e)" d="M67.562 21.318c0 0.982-0.764 1.778-1.706 1.778s-1.706-0.796-1.706-1.778c0-0.982 0.764-1.778 1.706-1.778s1.706 0.796 1.706 1.778z"></path>
<path fill="#f8d24e" style="fill: var(--color3, #f8d24e)" d="M71.543 18.947c0 0.982-0.764 1.778-1.706 1.778s-1.706-0.796-1.706-1.778c0-0.982 0.764-1.778 1.706-1.778s1.706 0.796 1.706 1.778z"></path>
<path fill="#f8d24e" style="fill: var(--color3, #f8d24e)" d="M62.162 29.616c0 0.982-0.764 1.778-1.706 1.778s-1.706-0.796-1.706-1.778c0-0.982 0.764-1.778 1.706-1.778s1.706 0.796 1.706 1.778z"></path>
<path fill="#f8d24e" style="fill: var(--color3, #f8d24e)" d="M65.858 27.245c0 0.982-0.764 1.778-1.706 1.778s-1.706-0.796-1.706-1.778c0-0.982 0.764-1.778 1.706-1.778s1.706 0.796 1.706 1.778z"></path>
<path fill="#f8d24e" style="fill: var(--color3, #f8d24e)" d="M70.975 29.913c0 0.982-0.764 1.778-1.706 1.778s-1.706-0.796-1.706-1.778c0-0.982 0.764-1.778 1.706-1.778s1.706 0.796 1.706 1.778z"></path>
<path fill="#f8d24e" style="fill: var(--color3, #f8d24e)" d="M70.123 24.578c0 0.982-0.764 1.778-1.706 1.778s-1.706-0.796-1.706-1.778c0-0.982 0.764-1.778 1.706-1.778s1.706 0.796 1.706 1.778z"></path>
<path fill="#f8d24e" style="fill: var(--color3, #f8d24e)" d="M75.24 27.245c0 0.982-0.764 1.778-1.706 1.778s-1.706-0.796-1.706-1.778c0-0.982 0.764-1.778 1.706-1.778s1.706 0.796 1.706 1.778z"></path>
<path fill="#f8d24e" style="fill: var(--color3, #f8d24e)" d="M79.22 29.913c0 0.982-0.764 1.778-1.706 1.778s-1.706-0.796-1.706-1.778c0-0.982 0.764-1.778 1.706-1.778s1.706 0.796 1.706 1.778z"></path>
<path fill="#f8d24e" style="fill: var(--color3, #f8d24e)" d="M74.103 22.206c0 0.982-0.764 1.778-1.706 1.778s-1.706-0.796-1.706-1.778c0-0.982 0.764-1.778 1.706-1.778s1.706 0.796 1.706 1.778z"></path>
<path fill="#f8d24e" style="fill: var(--color3, #f8d24e)" d="M79.22 24.874c0 0.982-0.764 1.778-1.706 1.778s-1.706-0.796-1.706-1.778c0-0.982 0.764-1.778 1.706-1.778s1.706 0.796 1.706 1.778z"></path>
<path fill="#f8d24e" style="fill: var(--color3, #f8d24e)" d="M83.2 27.542c0 0.982-0.764 1.778-1.706 1.778s-1.706-0.796-1.706-1.778c0-0.982 0.764-1.778 1.706-1.778s1.706 0.796 1.706 1.778z"></path>
<path fill="#f8d24e" style="fill: var(--color3, #f8d24e)" d="M16.393 10.055c0 0.982-0.764 1.778-1.706 1.778s-1.706-0.796-1.706-1.778c0-0.982 0.764-1.778 1.706-1.778s1.706 0.796 1.706 1.778z"></path>
<path fill="#f8d24e" style="fill: var(--color3, #f8d24e)" d="M20.088 7.684c0 0.982-0.764 1.778-1.706 1.778s-1.706-0.796-1.706-1.778c0-0.982 0.764-1.778 1.706-1.778s1.706 0.796 1.706 1.778z"></path>
<path fill="#f8d24e" style="fill: var(--color3, #f8d24e)" d="M24.353 5.016c0 0.982-0.764 1.778-1.706 1.778s-1.706-0.796-1.706-1.778c0-0.982 0.764-1.778 1.706-1.778s1.706 0.796 1.706 1.778z"></path>
<path fill="#f8d24e" style="fill: var(--color3, #f8d24e)" d="M28.332 2.645c0 0.982-0.764 1.778-1.706 1.778s-1.706-0.796-1.706-1.778c0-0.982 0.764-1.778 1.706-1.778s1.706 0.796 1.706 1.778z"></path>
<path fill="#f8d24e" style="fill: var(--color3, #f8d24e)" d="M9.285 9.758c0 0.982-0.764 1.778-1.706 1.778s-1.706-0.796-1.706-1.778c0-0.982 0.764-1.778 1.706-1.778s1.706 0.796 1.706 1.778z"></path>
<path fill="#f8d24e" style="fill: var(--color3, #f8d24e)" d="M12.98 7.387c0 0.982-0.764 1.778-1.706 1.778s-1.706-0.796-1.706-1.778c0-0.982 0.764-1.778 1.706-1.778s1.706 0.796 1.706 1.778z"></path>
<path fill="#f8d24e" style="fill: var(--color3, #f8d24e)" d="M17.244 4.72c0 0.982-0.764 1.778-1.706 1.778s-1.706-0.796-1.706-1.778c0-0.982 0.764-1.778 1.706-1.778s1.706 0.796 1.706 1.778z"></path>
<path fill="#f8d24e" style="fill: var(--color3, #f8d24e)" d="M21.224 2.349c0 0.982-0.764 1.778-1.706 1.778s-1.706-0.796-1.706-1.778c0-0.982 0.764-1.778 1.706-1.778s1.706 0.796 1.706 1.778z"></path>
<path fill="#f8d24e" style="fill: var(--color3, #f8d24e)" d="M25.204 29.616c0 0.982-0.764 1.778-1.706 1.778s-1.706-0.796-1.706-1.778c0-0.982 0.764-1.778 1.706-1.778s1.706 0.796 1.706 1.778z"></path>
<path fill="#f8d24e" style="fill: var(--color3, #f8d24e)" d="M28.899 27.245c0 0.982-0.764 1.778-1.706 1.778s-1.706-0.796-1.706-1.778c0-0.982 0.764-1.778 1.706-1.778s1.706 0.796 1.706 1.778z"></path>
<path fill="#f8d24e" style="fill: var(--color3, #f8d24e)" d="M33.163 24.578c0 0.982-0.764 1.778-1.706 1.778s-1.706-0.796-1.706-1.778c0-0.982 0.764-1.778 1.706-1.778s1.706 0.796 1.706 1.778z"></path>
<path fill="#f8d24e" style="fill: var(--color3, #f8d24e)" d="M37.144 22.206c0 0.982-0.764 1.778-1.706 1.778s-1.706-0.796-1.706-1.778c0-0.982 0.764-1.778 1.706-1.778s1.706 0.796 1.706 1.778z"></path>
<path fill="#f8d24e" style="fill: var(--color3, #f8d24e)" d="M20.656 27.838c0 0.982-0.764 1.778-1.706 1.778s-1.706-0.796-1.706-1.778c0-0.982 0.764-1.778 1.706-1.778s1.706 0.796 1.706 1.778z"></path>
<path fill="#f8d24e" style="fill: var(--color3, #f8d24e)" d="M24.351 25.467c0 0.982-0.764 1.778-1.706 1.778s-1.706-0.796-1.706-1.778c0-0.982 0.764-1.778 1.706-1.778s1.706 0.796 1.706 1.778z"></path>
<path fill="#f8d24e" style="fill: var(--color3, #f8d24e)" d="M28.615 22.8c0 0.982-0.764 1.778-1.706 1.778s-1.706-0.796-1.706-1.778c0-0.982 0.764-1.778 1.706-1.778s1.706 0.796 1.706 1.778z"></path>
<path fill="#f8d24e" style="fill: var(--color3, #f8d24e)" d="M32.596 20.429c0 0.982-0.764 1.778-1.706 1.778s-1.706-0.796-1.706-1.778c0-0.982 0.764-1.778 1.706-1.778s1.706 0.796 1.706 1.778z"></path>
<path fill="#f8d24e" style="fill: var(--color3, #f8d24e)" d="M22.361 21.614c0 0.982-0.764 1.778-1.706 1.778s-1.706-0.796-1.706-1.778c0-0.982 0.764-1.778 1.706-1.778s1.706 0.796 1.706 1.778z"></path>
<path fill="#f8d24e" style="fill: var(--color3, #f8d24e)" d="M26.056 19.243c0 0.982-0.764 1.778-1.706 1.778s-1.706-0.796-1.706-1.778c0-0.982 0.764-1.778 1.706-1.778s1.706 0.796 1.706 1.778z"></path>
<path fill="#f8d24e" style="fill: var(--color3, #f8d24e)" d="M30.322 16.575c0 0.982-0.764 1.778-1.706 1.778s-1.706-0.796-1.706-1.778c0-0.982 0.764-1.778 1.706-1.778s1.706 0.796 1.706 1.778z"></path>
<path fill="#f8d24e" style="fill: var(--color3, #f8d24e)" d="M34.301 14.204c0 0.982-0.764 1.778-1.706 1.778s-1.706-0.796-1.706-1.778c0-0.982 0.764-1.778 1.706-1.778s1.706 0.796 1.706 1.778z"></path>
<path fill="#f8d24e" style="fill: var(--color3, #f8d24e)" d="M22.361 11.24c0 0.982-0.764 1.778-1.706 1.778s-1.706-0.796-1.706-1.778c0-0.982 0.764-1.778 1.706-1.778s1.706 0.796 1.706 1.778z"></path>
<path fill="#f8d24e" style="fill: var(--color3, #f8d24e)" d="M26.056 8.869c0 0.982-0.764 1.778-1.706 1.778s-1.706-0.796-1.706-1.778c0-0.982 0.764-1.778 1.706-1.778s1.706 0.796 1.706 1.778z"></path>
<path fill="#f8d24e" style="fill: var(--color3, #f8d24e)" d="M30.322 6.202c0 0.982-0.764 1.778-1.706 1.778s-1.706-0.796-1.706-1.778c0-0.982 0.764-1.778 1.706-1.778s1.706 0.796 1.706 1.778z"></path>
<path fill="#f8d24e" style="fill: var(--color3, #f8d24e)" d="M34.301 3.831c0 0.982-0.764 1.778-1.706 1.778s-1.706-0.796-1.706-1.778c0-0.982 0.764-1.778 1.706-1.778s1.706 0.796 1.706 1.778z"></path>
<path fill="#f8d24e" style="fill: var(--color3, #f8d24e)" d="M21.508 16.872c0 0.982-0.764 1.778-1.706 1.778s-1.706-0.796-1.706-1.778c0-0.982 0.764-1.778 1.706-1.778s1.706 0.796 1.706 1.778z"></path>
<path fill="#f8d24e" style="fill: var(--color3, #f8d24e)" d="M25.205 14.501c0 0.982-0.764 1.778-1.706 1.778s-1.706-0.796-1.706-1.778c0-0.982 0.764-1.778 1.706-1.778s1.706 0.796 1.706 1.778z"></path>
<path fill="#f8d24e" style="fill: var(--color3, #f8d24e)" d="M29.468 11.833c0 0.982-0.764 1.778-1.706 1.778s-1.706-0.796-1.706-1.778c0-0.982 0.764-1.778 1.706-1.778s1.706 0.796 1.706 1.778z"></path>
<path fill="#f8d24e" style="fill: var(--color3, #f8d24e)" d="M33.448 9.462c0 0.982-0.764 1.778-1.706 1.778s-1.706-0.796-1.706-1.778c0-0.982 0.764-1.778 1.706-1.778s1.706 0.796 1.706 1.778z"></path>
<path fill="#f8d24e" style="fill: var(--color3, #f8d24e)" d="M3.598 8.276c0 0.982-0.764 1.778-1.706 1.778s-1.706-0.796-1.706-1.778c0-0.982 0.764-1.778 1.706-1.778s1.706 0.796 1.706 1.778z"></path>
<path fill="#f8d24e" style="fill: var(--color3, #f8d24e)" d="M7.295 5.905c0 0.982-0.764 1.778-1.706 1.778s-1.706-0.796-1.706-1.778c0-0.982 0.764-1.778 1.706-1.778s1.706 0.796 1.706 1.778z"></path>
<path fill="#f8d24e" style="fill: var(--color3, #f8d24e)" d="M11.559 3.238c0 0.982-0.764 1.778-1.706 1.778s-1.706-0.796-1.706-1.778c0-0.982 0.764-1.778 1.706-1.778s1.706 0.796 1.706 1.778z"></path>
<path fill="#f8d24e" style="fill: var(--color3, #f8d24e)" d="M9.569 10.055c0.942 0 1.706-0.796 1.706-1.778s-0.764-1.778-1.706-1.778c-0.942 0-1.706 0.796-1.706 1.778s0.764 1.778 1.706 1.778z"></path>
</symbol>
<symbol id="icon-wave-left" viewBox="0 0 96 32">
<path fill="#f8d24e" style="fill: var(--color3, #f8d24e)" d="M77.548 16.522c0.213 1.449-0.741 2.803-2.13 3.025s-2.689-0.772-2.902-2.221c-0.213-1.449 0.741-2.803 2.13-3.025s2.689 0.772 2.902 2.221z"></path>
<path fill="#f8d24e" style="fill: var(--color3, #f8d24e)" d="M82.485 12.152c0.213 1.449-0.741 2.803-2.13 3.025s-2.689-0.772-2.902-2.221c-0.213-1.449 0.741-2.803 2.13-3.025s2.689 0.772 2.902 2.221z"></path>
<path fill="#f8d24e" style="fill: var(--color3, #f8d24e)" d="M88.197 7.212c0.213 1.449-0.741 2.803-2.13 3.025s-2.689-0.772-2.902-2.221c-0.213-1.449 0.741-2.803 2.13-3.025s2.689 0.772 2.902 2.221z"></path>
<path fill="#f8d24e" style="fill: var(--color3, #f8d24e)" d="M93.554 2.776c0.213 1.449-0.741 2.803-2.13 3.025s-2.689-0.772-2.902-2.221c-0.213-1.449 0.741-2.803 2.13-3.025s2.689 0.772 2.902 2.221z"></path>
<path fill="#f8d24e" style="fill: var(--color3, #f8d24e)" d="M3.135 12.98c0 1.466-1.146 2.654-2.56 2.654s-2.56-1.188-2.56-2.654c0-1.466 1.146-2.654 2.56-2.654s2.56 1.188 2.56 2.654z"></path>
<path fill="#f8d24e" style="fill: var(--color3, #f8d24e)" d="M9.537 8.999c0 1.466-1.146 2.654-2.56 2.654s-2.56-1.188-2.56-2.654c0-1.466 1.146-2.654 2.56-2.654s2.56 1.188 2.56 2.654z"></path>
<path fill="#f8d24e" style="fill: var(--color3, #f8d24e)" d="M15.508 5.46c0 1.466-1.146 2.654-2.56 2.654s-2.56-1.188-2.56-2.654c0-1.466 1.146-2.654 2.56-2.654s2.56 1.188 2.56 2.654z"></path>
<path fill="#f8d24e" style="fill: var(--color3, #f8d24e)" d="M0.151 23.153c0 1.466-1.146 2.654-2.56 2.654s-2.56-1.188-2.56-2.654c0-1.466 1.146-2.654 2.56-2.654s2.56 1.188 2.56 2.654z"></path>
<path fill="#f8d24e" style="fill: var(--color3, #f8d24e)" d="M5.697 19.615c0 1.466-1.146 2.654-2.56 2.654s-2.56-1.188-2.56-2.654c0-1.466 1.146-2.654 2.56-2.654s2.56 1.188 2.56 2.654z"></path>
<path fill="#f8d24e" style="fill: var(--color3, #f8d24e)" d="M12.097 15.634c0 1.466-1.146 2.654-2.56 2.654s-2.56-1.188-2.56-2.654c0-1.466 1.146-2.654 2.56-2.654s2.56 1.188 2.56 2.654z"></path>
<path fill="#f8d24e" style="fill: var(--color3, #f8d24e)" d="M18.069 12.095c0 1.466-1.146 2.654-2.56 2.654s-2.56-1.188-2.56-2.654c0-1.466 1.146-2.654 2.56-2.654s2.56 1.188 2.56 2.654z"></path>
<path fill="#f8d24e" style="fill: var(--color3, #f8d24e)" d="M6.549 26.692c0 1.466-1.146 2.654-2.56 2.654s-2.56-1.188-2.56-2.654c0-1.466 1.146-2.654 2.56-2.654s2.56 1.188 2.56 2.654z"></path>
<path fill="#f8d24e" style="fill: var(--color3, #f8d24e)" d="M12.096 23.153c0 1.466-1.146 2.654-2.56 2.654s-2.56-1.188-2.56-2.654c0-1.466 1.146-2.654 2.56-2.654s2.56 1.188 2.56 2.654z"></path>
<path fill="#f8d24e" style="fill: var(--color3, #f8d24e)" d="M18.495 19.172c0 1.466-1.146 2.654-2.56 2.654s-2.56-1.188-2.56-2.654c0-1.466 1.146-2.654 2.56-2.654s2.56 1.188 2.56 2.654z"></path>
<path fill="#f8d24e" style="fill: var(--color3, #f8d24e)" d="M24.467 15.634c0 1.466-1.146 2.654-2.56 2.654s-2.56-1.188-2.56-2.654c0-1.466 1.146-2.654 2.56-2.654s2.56 1.188 2.56 2.654z"></path>
<path fill="#f8d24e" style="fill: var(--color3, #f8d24e)" d="M13.801 28.904c0 1.466-1.146 2.654-2.56 2.654s-2.56-1.188-2.56-2.654c0-1.466 1.146-2.654 2.56-2.654s2.56 1.188 2.56 2.654z"></path>
<path fill="#f8d24e" style="fill: var(--color3, #f8d24e)" d="M19.347 25.365c0 1.466-1.146 2.654-2.56 2.654s-2.56-1.188-2.56-2.654c0-1.466 1.146-2.654 2.56-2.654s2.56 1.188 2.56 2.654z"></path>
<path fill="#f8d24e" style="fill: var(--color3, #f8d24e)" d="M25.748 21.384c0 1.466-1.146 2.654-2.56 2.654s-2.56-1.188-2.56-2.654c0-1.466 1.146-2.654 2.56-2.654s2.56 1.188 2.56 2.654z"></path>
<path fill="#f8d24e" style="fill: var(--color3, #f8d24e)" d="M31.719 17.846c0 1.466-1.146 2.654-2.56 2.654s-2.56-1.188-2.56-2.654c0-1.466 1.146-2.654 2.56-2.654s2.56 1.188 2.56 2.654z"></path>
<path fill="#f8d24e" style="fill: var(--color3, #f8d24e)" d="M23.188 29.346c0 1.466-1.146 2.654-2.56 2.654s-2.56-1.188-2.56-2.654c0-1.466 1.146-2.654 2.56-2.654s2.56 1.188 2.56 2.654z"></path>
<path fill="#f8d24e" style="fill: var(--color3, #f8d24e)" d="M28.734 25.808c0 1.466-1.146 2.654-2.56 2.654s-2.56-1.188-2.56-2.654c0-1.466 1.146-2.654 2.56-2.654s2.56 1.188 2.56 2.654z"></path>
<path fill="#f8d24e" style="fill: var(--color3, #f8d24e)" d="M35.134 21.827c0 1.466-1.146 2.654-2.56 2.654s-2.56-1.188-2.56-2.654c0-1.466 1.146-2.654 2.56-2.654s2.56 1.188 2.56 2.654z"></path>
<path fill="#f8d24e" style="fill: var(--color3, #f8d24e)" d="M41.106 18.288c0 1.466-1.146 2.654-2.56 2.654s-2.56-1.188-2.56-2.654c0-1.466 1.146-2.654 2.56-2.654s2.56 1.188 2.56 2.654z"></path>
<path fill="#f8d24e" style="fill: var(--color3, #f8d24e)" d="M34.281 29.346c0 1.466-1.146 2.654-2.56 2.654s-2.56-1.188-2.56-2.654c0-1.466 1.146-2.654 2.56-2.654s2.56 1.188 2.56 2.654z"></path>
<path fill="#f8d24e" style="fill: var(--color3, #f8d24e)" d="M39.826 25.808c0 1.466-1.146 2.654-2.56 2.654s-2.56-1.188-2.56-2.654c0-1.466 1.146-2.654 2.56-2.654s2.56 1.188 2.56 2.654z"></path>
<path fill="#f8d24e" style="fill: var(--color3, #f8d24e)" d="M46.226 21.826c0 1.466-1.146 2.654-2.56 2.654s-2.56-1.188-2.56-2.654c0-1.466 1.146-2.654 2.56-2.654s2.56 1.188 2.56 2.654z"></path>
<path fill="#f8d24e" style="fill: var(--color3, #f8d24e)" d="M52.2 18.288c0 1.466-1.146 2.654-2.56 2.654s-2.56-1.188-2.56-2.654c0-1.466 1.146-2.654 2.56-2.654s2.56 1.188 2.56 2.654z"></path>
<path fill="#f8d24e" style="fill: var(--color3, #f8d24e)" d="M43.665 28.904c0 1.466-1.146 2.654-2.56 2.654s-2.56-1.188-2.56-2.654c0-1.466 1.146-2.654 2.56-2.654s2.56 1.188 2.56 2.654z"></path>
<path fill="#f8d24e" style="fill: var(--color3, #f8d24e)" d="M49.211 25.365c0 1.466-1.146 2.654-2.56 2.654s-2.56-1.188-2.56-2.654c0-1.466 1.146-2.654 2.56-2.654s2.56 1.188 2.56 2.654z"></path>
<path fill="#f8d24e" style="fill: var(--color3, #f8d24e)" d="M55.611 21.384c0 1.466-1.146 2.654-2.56 2.654s-2.56-1.188-2.56-2.654c0-1.466 1.146-2.654 2.56-2.654s2.56 1.188 2.56 2.654z"></path>
<path fill="#f8d24e" style="fill: var(--color3, #f8d24e)" d="M61.583 17.846c0 1.466-1.146 2.654-2.56 2.654s-2.56-1.188-2.56-2.654c0-1.466 1.146-2.654 2.56-2.654s2.56 1.188 2.56 2.654z"></path>
<path fill="#f8d24e" style="fill: var(--color3, #f8d24e)" d="M54.33 28.461c0 1.466-1.146 2.654-2.56 2.654s-2.56-1.188-2.56-2.654c0-1.466 1.146-2.654 2.56-2.654s2.56 1.188 2.56 2.654z"></path>
<path fill="#f8d24e" style="fill: var(--color3, #f8d24e)" d="M59.876 24.923c0 1.466-1.146 2.654-2.56 2.654s-2.56-1.188-2.56-2.654c0-1.466 1.146-2.654 2.56-2.654s2.56 1.188 2.56 2.654z"></path>
<path fill="#f8d24e" style="fill: var(--color3, #f8d24e)" d="M66.277 20.942c0 1.466-1.146 2.654-2.56 2.654s-2.56-1.188-2.56-2.654c0-1.466 1.146-2.654 2.56-2.654s2.56 1.188 2.56 2.654z"></path>
<path fill="#f8d24e" style="fill: var(--color3, #f8d24e)" d="M72.248 17.403c0 1.466-1.146 2.654-2.56 2.654s-2.56-1.188-2.56-2.654c0-1.466 1.146-2.654 2.56-2.654s2.56 1.188 2.56 2.654z"></path>
<path fill="#f8d24e" style="fill: var(--color3, #f8d24e)" d="M64.143 16.961c0 1.466-1.146 2.654-2.56 2.654s-2.56-1.188-2.56-2.654c0-1.466 1.146-2.654 2.56-2.654s2.56 1.188 2.56 2.654z"></path>
<path fill="#f8d24e" style="fill: var(--color3, #f8d24e)" d="M69.689 13.422c0 1.466-1.146 2.654-2.56 2.654s-2.56-1.188-2.56-2.654c0-1.466 1.146-2.654 2.56-2.654s2.56 1.188 2.56 2.654z"></path>
<path fill="#f8d24e" style="fill: var(--color3, #f8d24e)" d="M76.088 9.442c0 1.466-1.146 2.654-2.56 2.654s-2.56-1.188-2.56-2.654c0-1.466 1.146-2.654 2.56-2.654s2.56 1.188 2.56 2.654z"></path>
<path fill="#f8d24e" style="fill: var(--color3, #f8d24e)" d="M82.061 5.903c0 1.466-1.146 2.654-2.56 2.654s-2.56-1.188-2.56-2.654c0-1.466 1.146-2.654 2.56-2.654s2.56 1.188 2.56 2.654z"></path>
</symbol>
<symbol id="icon-shadow" viewBox="0 0 27 32">
<path fill="#fcfcfc" style="fill: var(--color4, #fcfcfc)" opacity="0.44" d="M16.31 5.301l1.327 0.45 1.189 0.612 0.965 0.612 0.741 1.043 0.603 1.673 0.224 1.241-0.125 0.414-0.194 0.378-0.509 0.72-0.103 0.845v0.845l0.517 0.306 0.362 0.396 0.138 0.414 0.052 0.378 0.052 0.828 0.241 1.763-0.103 1.115-0.147 0.54-0.146 0.54-0.802 0.81-0.957 0.756-1.043 0.333-1.198 0.279-0.914 0.918-1.017 1.061-0.741 1.097-0.776 0.504-0.638 0.558h-7.619v-2.662l0.276-1.673 0.396-1.925 0.069-2.572-0.672-1.439-0.414-1.277v-1.223l0.414-1.439 0.302-0.935 0.371-0.864 0.81-0.639 0.896-0.585 1.276-0.36 0.646-0.153 0.577-0.189 0.448-0.899 0.431-0.917 0.655-0.621 0.793-0.549 0.862-0.324 0.793-0.18h1.689z"></path>
</symbol>
</defs>
</svg>
