<svg width="20" height="20" viewBox="0 0 20 20" fill="none" xmlns="http://www.w3.org/2000/svg">
<path d="M9.99965 0.529053C4.83019 0.529053 0.587891 4.77238 0.587891 9.94309C0.587891 14.3555 3.68331 18.3637 7.79377 19.3571V16.2426C7.38649 16.3318 7.01166 16.3344 6.59705 16.2121C6.04084 16.0479 5.5889 15.6773 5.25342 15.1122C5.03958 14.7514 4.66059 14.3601 4.26522 14.3888L4.16828 13.2899C5.02321 13.2167 5.76281 13.8109 6.20183 14.5487C6.39686 14.8768 6.62132 15.0691 6.90941 15.1542C7.18787 15.2362 7.48687 15.1968 7.83528 15.0737C7.92274 14.376 8.24227 14.1149 8.48369 13.7471V13.7466C6.03223 13.3808 5.05523 12.08 4.66748 11.0532C4.15364 9.68984 4.42937 7.98662 5.33801 6.91028C5.35567 6.8893 5.38755 6.83443 5.3752 6.79608C4.95858 5.5373 5.46625 4.496 5.48492 4.38554C5.96573 4.52775 6.04386 4.24247 7.57347 5.17201L7.83786 5.33088C7.94844 5.39681 7.91369 5.35918 8.02427 5.35085C8.66291 5.17732 9.33617 5.08151 9.99951 5.07289C10.6679 5.08151 11.3368 5.17732 12.0019 5.35788L12.0875 5.3665C12.08 5.36535 12.1108 5.36104 12.1623 5.3303C14.0731 4.17265 14.0044 4.55102 14.5168 4.38439C14.5354 4.495 15.0363 5.55324 14.6241 6.79608C14.5685 6.9673 16.2807 8.5355 15.3317 11.0528C14.9439 12.08 13.9671 13.3808 11.5156 13.7466V13.7471C11.8298 14.2262 12.2074 14.481 12.2054 15.4693V19.3571C16.316 18.3637 19.4113 14.3555 19.4113 9.94309C19.4114 4.77238 15.1691 0.529053 9.99965 0.529053V0.529053Z" fill="#84A178"/>
</svg>
